<mxfile host="Electron" agent="Mozilla/5.0 (Macintosh; Intel Mac OS X 10_15_7) AppleWebKit/537.36 (KHTML, like Gecko) draw.io/24.7.17 Chrome/128.0.6613.36 Electron/32.0.1 Safari/537.36" version="24.7.17">
  <diagram name="Page-1" id="BgUSemuKrn2nTzNCQmrP">
    <mxGraphModel dx="1272" dy="969" grid="0" gridSize="10" guides="1" tooltips="1" connect="1" arrows="1" fold="1" page="1" pageScale="1" pageWidth="1100" pageHeight="850" math="0" shadow="0">
      <root>
        <mxCell id="0" />
        <mxCell id="1" parent="0" />
        <mxCell id="DDf4HPQSBz6CLD3svjrc-23" value="Availability Zone A" style="fillColor=none;strokeColor=#147EBA;dashed=1;verticalAlign=top;fontStyle=0;fontColor=#147EBA;whiteSpace=wrap;html=1;" vertex="1" parent="1">
          <mxGeometry x="310" y="110" width="610" height="290" as="geometry" />
        </mxCell>
        <mxCell id="DDf4HPQSBz6CLD3svjrc-5" value="Public subnet" style="points=[[0,0],[0.25,0],[0.5,0],[0.75,0],[1,0],[1,0.25],[1,0.5],[1,0.75],[1,1],[0.75,1],[0.5,1],[0.25,1],[0,1],[0,0.75],[0,0.5],[0,0.25]];outlineConnect=0;gradientColor=none;html=1;whiteSpace=wrap;fontSize=12;fontStyle=0;container=1;pointerEvents=0;collapsible=0;recursiveResize=0;shape=mxgraph.aws4.group;grIcon=mxgraph.aws4.group_security_group;grStroke=0;strokeColor=#7AA116;fillColor=#F2F6E8;verticalAlign=top;align=left;spacingLeft=30;fontColor=#248814;dashed=0;" vertex="1" parent="1">
          <mxGeometry x="320" y="150" width="150" height="240" as="geometry" />
        </mxCell>
        <mxCell id="DDf4HPQSBz6CLD3svjrc-7" value="NAT Gateway" style="sketch=0;outlineConnect=0;fontColor=#232F3E;gradientColor=none;fillColor=#8C4FFF;strokeColor=none;dashed=0;verticalLabelPosition=bottom;verticalAlign=top;align=center;html=1;fontSize=12;fontStyle=0;aspect=fixed;pointerEvents=1;shape=mxgraph.aws4.nat_gateway;" vertex="1" parent="DDf4HPQSBz6CLD3svjrc-5">
          <mxGeometry x="45" y="100" width="60" height="60" as="geometry" />
        </mxCell>
        <mxCell id="DDf4HPQSBz6CLD3svjrc-3" value="Private subnet" style="points=[[0,0],[0.25,0],[0.5,0],[0.75,0],[1,0],[1,0.25],[1,0.5],[1,0.75],[1,1],[0.75,1],[0.5,1],[0.25,1],[0,1],[0,0.75],[0,0.5],[0,0.25]];outlineConnect=0;gradientColor=none;html=1;whiteSpace=wrap;fontSize=12;fontStyle=0;container=1;pointerEvents=0;collapsible=0;recursiveResize=0;shape=mxgraph.aws4.group;grIcon=mxgraph.aws4.group_security_group;grStroke=0;strokeColor=#00A4A6;fillColor=#E6F6F7;verticalAlign=top;align=left;spacingLeft=30;fontColor=#147EBA;dashed=0;" vertex="1" parent="1">
          <mxGeometry x="510" y="500" width="400" height="240" as="geometry" />
        </mxCell>
        <mxCell id="DDf4HPQSBz6CLD3svjrc-11" value="EFS Mount Target" style="sketch=0;points=[[0,0,0],[0.25,0,0],[0.5,0,0],[0.75,0,0],[1,0,0],[0,1,0],[0.25,1,0],[0.5,1,0],[0.75,1,0],[1,1,0],[0,0.25,0],[0,0.5,0],[0,0.75,0],[1,0.25,0],[1,0.5,0],[1,0.75,0]];outlineConnect=0;fontColor=#232F3E;fillColor=#7AA116;strokeColor=#ffffff;dashed=0;verticalLabelPosition=bottom;verticalAlign=top;align=center;html=1;fontSize=12;fontStyle=0;aspect=fixed;shape=mxgraph.aws4.resourceIcon;resIcon=mxgraph.aws4.efs_standard;" vertex="1" parent="DDf4HPQSBz6CLD3svjrc-3">
          <mxGeometry x="290" y="105" width="60" height="60" as="geometry" />
        </mxCell>
        <mxCell id="DDf4HPQSBz6CLD3svjrc-4" value="Private subnet" style="points=[[0,0],[0.25,0],[0.5,0],[0.75,0],[1,0],[1,0.25],[1,0.5],[1,0.75],[1,1],[0.75,1],[0.5,1],[0.25,1],[0,1],[0,0.75],[0,0.5],[0,0.25]];outlineConnect=0;gradientColor=none;html=1;whiteSpace=wrap;fontSize=12;fontStyle=0;container=1;pointerEvents=0;collapsible=0;recursiveResize=0;shape=mxgraph.aws4.group;grIcon=mxgraph.aws4.group_security_group;grStroke=0;strokeColor=#00A4A6;fillColor=#E6F6F7;verticalAlign=top;align=left;spacingLeft=30;fontColor=#147EBA;dashed=0;" vertex="1" parent="1">
          <mxGeometry x="510" y="150" width="400" height="240" as="geometry" />
        </mxCell>
        <mxCell id="DDf4HPQSBz6CLD3svjrc-19" value="EFS Mount Target" style="sketch=0;points=[[0,0,0],[0.25,0,0],[0.5,0,0],[0.75,0,0],[1,0,0],[0,1,0],[0.25,1,0],[0.5,1,0],[0.75,1,0],[1,1,0],[0,0.25,0],[0,0.5,0],[0,0.75,0],[1,0.25,0],[1,0.5,0],[1,0.75,0]];outlineConnect=0;fontColor=#232F3E;fillColor=#7AA116;strokeColor=#ffffff;dashed=0;verticalLabelPosition=bottom;verticalAlign=top;align=center;html=1;fontSize=12;fontStyle=0;aspect=fixed;shape=mxgraph.aws4.resourceIcon;resIcon=mxgraph.aws4.efs_standard;" vertex="1" parent="DDf4HPQSBz6CLD3svjrc-4">
          <mxGeometry x="290" y="100" width="60" height="60" as="geometry" />
        </mxCell>
        <mxCell id="DDf4HPQSBz6CLD3svjrc-15" value="" style="rounded=0;whiteSpace=wrap;html=1;fillColor=none;strokeColor=#d79b00;" vertex="1" parent="1">
          <mxGeometry x="550" y="215" width="200" height="460" as="geometry" />
        </mxCell>
        <mxCell id="DDf4HPQSBz6CLD3svjrc-1" value="AWS Account" style="points=[[0,0],[0.25,0],[0.5,0],[0.75,0],[1,0],[1,0.25],[1,0.5],[1,0.75],[1,1],[0.75,1],[0.5,1],[0.25,1],[0,1],[0,0.75],[0,0.5],[0,0.25]];outlineConnect=0;gradientColor=none;html=1;whiteSpace=wrap;fontSize=12;fontStyle=0;container=1;pointerEvents=0;collapsible=0;recursiveResize=0;shape=mxgraph.aws4.group;grIcon=mxgraph.aws4.group_account;strokeColor=#CD2264;fillColor=none;verticalAlign=top;align=left;spacingLeft=30;fontColor=#CD2264;dashed=0;" vertex="1" parent="1">
          <mxGeometry x="170" y="60" width="870" height="730" as="geometry" />
        </mxCell>
        <mxCell id="DDf4HPQSBz6CLD3svjrc-2" value="VPC" style="sketch=0;outlineConnect=0;gradientColor=none;html=1;whiteSpace=wrap;fontSize=12;fontStyle=0;shape=mxgraph.aws4.group;grIcon=mxgraph.aws4.group_vpc;strokeColor=#879196;fillColor=none;verticalAlign=top;align=left;spacingLeft=30;fontColor=#879196;dashed=0;" vertex="1" parent="1">
          <mxGeometry x="200" y="90" width="820" height="680" as="geometry" />
        </mxCell>
        <mxCell id="DDf4HPQSBz6CLD3svjrc-6" value="Public subnet" style="points=[[0,0],[0.25,0],[0.5,0],[0.75,0],[1,0],[1,0.25],[1,0.5],[1,0.75],[1,1],[0.75,1],[0.5,1],[0.25,1],[0,1],[0,0.75],[0,0.5],[0,0.25]];outlineConnect=0;gradientColor=none;html=1;whiteSpace=wrap;fontSize=12;fontStyle=0;container=1;pointerEvents=0;collapsible=0;recursiveResize=0;shape=mxgraph.aws4.group;grIcon=mxgraph.aws4.group_security_group;grStroke=0;strokeColor=#7AA116;fillColor=#F2F6E8;verticalAlign=top;align=left;spacingLeft=30;fontColor=#248814;dashed=0;" vertex="1" parent="1">
          <mxGeometry x="320" y="500" width="150" height="240" as="geometry" />
        </mxCell>
        <mxCell id="DDf4HPQSBz6CLD3svjrc-8" value="NAT Gateway" style="sketch=0;outlineConnect=0;fontColor=#232F3E;gradientColor=none;fillColor=#8C4FFF;strokeColor=none;dashed=0;verticalLabelPosition=bottom;verticalAlign=top;align=center;html=1;fontSize=12;fontStyle=0;aspect=fixed;pointerEvents=1;shape=mxgraph.aws4.nat_gateway;" vertex="1" parent="DDf4HPQSBz6CLD3svjrc-6">
          <mxGeometry x="45" y="103" width="60" height="60" as="geometry" />
        </mxCell>
        <mxCell id="DDf4HPQSBz6CLD3svjrc-9" value="Internet Gateway" style="sketch=0;outlineConnect=0;fontColor=#232F3E;gradientColor=none;fillColor=#8C4FFF;strokeColor=none;dashed=0;verticalLabelPosition=bottom;verticalAlign=top;align=center;html=1;fontSize=12;fontStyle=0;aspect=fixed;pointerEvents=1;shape=mxgraph.aws4.internet_gateway;" vertex="1" parent="1">
          <mxGeometry x="365" y="405" width="60" height="60" as="geometry" />
        </mxCell>
        <mxCell id="DDf4HPQSBz6CLD3svjrc-10" value="Application Load&lt;div&gt;Balancer&lt;/div&gt;" style="sketch=0;outlineConnect=0;fontColor=#232F3E;gradientColor=none;fillColor=#8C4FFF;strokeColor=none;dashed=0;verticalLabelPosition=bottom;verticalAlign=top;align=center;html=1;fontSize=12;fontStyle=0;aspect=fixed;pointerEvents=1;shape=mxgraph.aws4.application_load_balancer;" vertex="1" parent="1">
          <mxGeometry x="230" y="405" width="60" height="60" as="geometry" />
        </mxCell>
        <mxCell id="DDf4HPQSBz6CLD3svjrc-12" value="EFS" style="sketch=0;outlineConnect=0;fontColor=#232F3E;gradientColor=none;fillColor=#7AA116;strokeColor=none;dashed=0;verticalLabelPosition=bottom;verticalAlign=top;align=center;html=1;fontSize=12;fontStyle=0;aspect=fixed;pointerEvents=1;shape=mxgraph.aws4.elastic_file_system_standard;" vertex="1" parent="1">
          <mxGeometry x="940" y="411" width="60" height="60" as="geometry" />
        </mxCell>
        <mxCell id="DDf4HPQSBz6CLD3svjrc-14" value="ECS&amp;nbsp;&lt;div&gt;Cluster&lt;/div&gt;" style="sketch=0;points=[[0,0,0],[0.25,0,0],[0.5,0,0],[0.75,0,0],[1,0,0],[0,1,0],[0.25,1,0],[0.5,1,0],[0.75,1,0],[1,1,0],[0,0.25,0],[0,0.5,0],[0,0.75,0],[1,0.25,0],[1,0.5,0],[1,0.75,0]];outlineConnect=0;fontColor=#232F3E;fillColor=#ED7100;strokeColor=#ffffff;dashed=0;verticalLabelPosition=bottom;verticalAlign=top;align=center;html=1;fontSize=12;fontStyle=0;aspect=fixed;shape=mxgraph.aws4.resourceIcon;resIcon=mxgraph.aws4.ecs;" vertex="1" parent="1">
          <mxGeometry x="550" y="215" width="60" height="60" as="geometry" />
        </mxCell>
        <mxCell id="DDf4HPQSBz6CLD3svjrc-13" value="Fargate" style="sketch=0;points=[[0,0,0],[0.25,0,0],[0.5,0,0],[0.75,0,0],[1,0,0],[0,1,0],[0.25,1,0],[0.5,1,0],[0.75,1,0],[1,1,0],[0,0.25,0],[0,0.5,0],[0,0.75,0],[1,0.25,0],[1,0.5,0],[1,0.75,0]];outlineConnect=0;fontColor=#232F3E;fillColor=#ED7100;strokeColor=#ffffff;dashed=0;verticalLabelPosition=bottom;verticalAlign=top;align=center;html=1;fontSize=12;fontStyle=0;aspect=fixed;shape=mxgraph.aws4.resourceIcon;resIcon=mxgraph.aws4.fargate;" vertex="1" parent="1">
          <mxGeometry x="619.03" y="376" width="60" height="60" as="geometry" />
        </mxCell>
        <mxCell id="DDf4HPQSBz6CLD3svjrc-16" value="Jenkins" style="sketch=0;outlineConnect=0;fontColor=#232F3E;gradientColor=none;fillColor=#ED7100;strokeColor=none;dashed=0;verticalLabelPosition=bottom;verticalAlign=top;align=center;html=1;fontSize=12;fontStyle=0;aspect=fixed;pointerEvents=1;shape=mxgraph.aws4.container_1;" vertex="1" parent="1">
          <mxGeometry x="619.03" y="565" width="61.93" height="40" as="geometry" />
        </mxCell>
        <mxCell id="DDf4HPQSBz6CLD3svjrc-17" value="" style="endArrow=classic;html=1;rounded=0;dashed=1;" edge="1" parent="1" target="DDf4HPQSBz6CLD3svjrc-16">
          <mxGeometry width="50" height="50" relative="1" as="geometry">
            <mxPoint x="260" y="510" as="sourcePoint" />
            <mxPoint x="160" y="630" as="targetPoint" />
            <Array as="points">
              <mxPoint x="260" y="585" />
            </Array>
          </mxGeometry>
        </mxCell>
        <mxCell id="DDf4HPQSBz6CLD3svjrc-20" value="" style="endArrow=classic;html=1;rounded=0;exitX=1;exitY=0.5;exitDx=0;exitDy=0;exitPerimeter=0;dashed=1;" edge="1" parent="1" source="DDf4HPQSBz6CLD3svjrc-11">
          <mxGeometry width="50" height="50" relative="1" as="geometry">
            <mxPoint x="470" y="400" as="sourcePoint" />
            <mxPoint x="970" y="490" as="targetPoint" />
            <Array as="points">
              <mxPoint x="970" y="635" />
            </Array>
          </mxGeometry>
        </mxCell>
        <mxCell id="DDf4HPQSBz6CLD3svjrc-21" value="" style="endArrow=classic;html=1;rounded=0;exitX=1;exitY=0.5;exitDx=0;exitDy=0;exitPerimeter=0;dashed=1;" edge="1" parent="1" source="DDf4HPQSBz6CLD3svjrc-19">
          <mxGeometry width="50" height="50" relative="1" as="geometry">
            <mxPoint x="470" y="400" as="sourcePoint" />
            <mxPoint x="970" y="410" as="targetPoint" />
            <Array as="points">
              <mxPoint x="970" y="280" />
            </Array>
          </mxGeometry>
        </mxCell>
        <mxCell id="DDf4HPQSBz6CLD3svjrc-22" value="" style="image;sketch=0;aspect=fixed;html=1;points=[];align=center;fontSize=12;image=img/lib/mscae/Docker.svg;" vertex="1" parent="1">
          <mxGeometry x="50" y="310" width="73.18" height="60" as="geometry" />
        </mxCell>
        <mxCell id="DDf4HPQSBz6CLD3svjrc-24" value="" style="endArrow=classic;html=1;rounded=0;exitX=0.008;exitY=0.554;exitDx=0;exitDy=0;exitPerimeter=0;dashed=1;" edge="1" parent="1" source="DDf4HPQSBz6CLD3svjrc-3" target="DDf4HPQSBz6CLD3svjrc-8">
          <mxGeometry width="50" height="50" relative="1" as="geometry">
            <mxPoint x="490" y="650" as="sourcePoint" />
            <mxPoint x="520" y="350" as="targetPoint" />
          </mxGeometry>
        </mxCell>
        <mxCell id="DDf4HPQSBz6CLD3svjrc-25" value="" style="endArrow=classic;html=1;rounded=0;exitX=0.008;exitY=0.554;exitDx=0;exitDy=0;exitPerimeter=0;dashed=1;" edge="1" parent="1">
          <mxGeometry width="50" height="50" relative="1" as="geometry">
            <mxPoint x="510" y="280" as="sourcePoint" />
            <mxPoint x="422" y="280" as="targetPoint" />
          </mxGeometry>
        </mxCell>
        <mxCell id="DDf4HPQSBz6CLD3svjrc-26" value="" style="endArrow=classic;html=1;rounded=0;dashed=1;" edge="1" parent="1" source="DDf4HPQSBz6CLD3svjrc-8" target="DDf4HPQSBz6CLD3svjrc-9">
          <mxGeometry width="50" height="50" relative="1" as="geometry">
            <mxPoint x="390" y="590" as="sourcePoint" />
            <mxPoint x="520" y="350" as="targetPoint" />
          </mxGeometry>
        </mxCell>
        <mxCell id="DDf4HPQSBz6CLD3svjrc-27" value="" style="endArrow=classic;html=1;rounded=0;dashed=1;" edge="1" parent="1" source="DDf4HPQSBz6CLD3svjrc-7" target="DDf4HPQSBz6CLD3svjrc-9">
          <mxGeometry width="50" height="50" relative="1" as="geometry">
            <mxPoint x="470" y="390" as="sourcePoint" />
            <mxPoint x="520" y="340" as="targetPoint" />
          </mxGeometry>
        </mxCell>
        <mxCell id="DDf4HPQSBz6CLD3svjrc-28" value="Availability Zone B" style="fillColor=none;strokeColor=#147EBA;dashed=1;verticalAlign=top;fontStyle=0;fontColor=#147EBA;whiteSpace=wrap;html=1;" vertex="1" parent="1">
          <mxGeometry x="310" y="460" width="610" height="290" as="geometry" />
        </mxCell>
        <mxCell id="DDf4HPQSBz6CLD3svjrc-31" value="" style="endArrow=classic;html=1;rounded=0;dashed=1;" edge="1" parent="1">
          <mxGeometry width="50" height="50" relative="1" as="geometry">
            <mxPoint x="360" y="436" as="sourcePoint" />
            <mxPoint x="130" y="340" as="targetPoint" />
            <Array as="points">
              <mxPoint x="300" y="436" />
              <mxPoint x="300" y="340" />
            </Array>
          </mxGeometry>
        </mxCell>
        <mxCell id="DDf4HPQSBz6CLD3svjrc-34" style="edgeStyle=orthogonalEdgeStyle;rounded=0;orthogonalLoop=1;jettySize=auto;html=1;dashed=1;" edge="1" parent="1" source="DDf4HPQSBz6CLD3svjrc-32" target="DDf4HPQSBz6CLD3svjrc-10">
          <mxGeometry relative="1" as="geometry" />
        </mxCell>
        <mxCell id="DDf4HPQSBz6CLD3svjrc-32" value="" style="shape=actor;whiteSpace=wrap;html=1;" vertex="1" parent="1">
          <mxGeometry x="66.59" y="405" width="40" height="60" as="geometry" />
        </mxCell>
      </root>
    </mxGraphModel>
  </diagram>
</mxfile>
